TITLE ""
FILE "2Q_k_051-060.mp3" MP3
  TRACK 01 AUDIO
    TITLE "2Q_k_051-060_01"
    INDEX 01 00:00:00
  TRACK 02 AUDIO
    TITLE "2Q_k_051-060_02"
    INDEX 01 00:01:59
  TRACK 03 AUDIO
    TITLE "2Q_k_051-060_03"
    INDEX 01 00:02:31
  TRACK 04 AUDIO
    TITLE "2Q_k_051-060_04"
    INDEX 01 00:04:69
  TRACK 05 AUDIO
    TITLE "2Q_k_051-060_05"
    INDEX 01 00:05:39
  TRACK 06 AUDIO
    TITLE "2Q_k_051-060_06"
    INDEX 01 00:08:35
  TRACK 07 AUDIO
    TITLE "2Q_k_051-060_07"
    INDEX 01 00:12:41
  TRACK 08 AUDIO
    TITLE "2Q_k_051-060_08"
    INDEX 01 00:13:19
  TRACK 09 AUDIO
    TITLE "2Q_k_051-060_09"
    INDEX 01 00:14:48
  TRACK 10 AUDIO
    TITLE "2Q_k_051-060_10"
    INDEX 01 00:15:18
  TRACK 11 AUDIO
    TITLE "2Q_k_051-060_11"
    INDEX 01 00:17:42
  TRACK 12 AUDIO
    TITLE "2Q_k_051-060_12"
    INDEX 01 00:18:14
  TRACK 13 AUDIO
    TITLE "2Q_k_051-060_13"
    INDEX 01 00:21:22
  TRACK 14 AUDIO
    TITLE "2Q_k_051-060_14"
    INDEX 01 00:25:06
  TRACK 15 AUDIO
    TITLE "2Q_k_051-060_15"
    INDEX 01 00:25:51
  TRACK 16 AUDIO
    TITLE "2Q_k_051-060_16"
    INDEX 01 00:27:21
  TRACK 17 AUDIO
    TITLE "2Q_k_051-060_17"
    INDEX 01 00:27:66
  TRACK 18 AUDIO
    TITLE "2Q_k_051-060_18"
    INDEX 01 00:30:02
  TRACK 19 AUDIO
    TITLE "2Q_k_051-060_19"
    INDEX 01 00:30:49
  TRACK 20 AUDIO
    TITLE "2Q_k_051-060_20"
    INDEX 01 00:33:59
  TRACK 21 AUDIO
    TITLE "2Q_k_051-060_21"
    INDEX 01 00:36:28
  TRACK 22 AUDIO
    TITLE "2Q_k_051-060_22"
    INDEX 01 00:36:73
  TRACK 23 AUDIO
    TITLE "2Q_k_051-060_23"
    INDEX 01 00:39:36
  TRACK 24 AUDIO
    TITLE "2Q_k_051-060_24"
    INDEX 01 00:40:06
  TRACK 25 AUDIO
    TITLE "2Q_k_051-060_25"
    INDEX 01 00:42:05
  TRACK 26 AUDIO
    TITLE "2Q_k_051-060_26"
    INDEX 01 00:42:52
  TRACK 27 AUDIO
    TITLE "2Q_k_051-060_27"
    INDEX 01 00:46:06
  TRACK 28 AUDIO
    TITLE "2Q_k_051-060_28"
    INDEX 01 00:50:08
  TRACK 29 AUDIO
    TITLE "2Q_k_051-060_29"
    INDEX 01 00:50:53
  TRACK 30 AUDIO
    TITLE "2Q_k_051-060_30"
    INDEX 01 00:52:11
  TRACK 31 AUDIO
    TITLE "2Q_k_051-060_31"
    INDEX 01 00:52:58
  TRACK 32 AUDIO
    TITLE "2Q_k_051-060_32"
    INDEX 01 00:54:24
  TRACK 33 AUDIO
    TITLE "2Q_k_051-060_33"
    INDEX 01 00:54:73
  TRACK 34 AUDIO
    TITLE "2Q_k_051-060_34"
    INDEX 01 00:58:10
  TRACK 35 AUDIO
    TITLE "2Q_k_051-060_35"
    INDEX 01 01:02:31
  TRACK 36 AUDIO
    TITLE "2Q_k_051-060_36"
    INDEX 01 01:03:05
  TRACK 37 AUDIO
    TITLE "2Q_k_051-060_37"
    INDEX 01 01:04:44
  TRACK 38 AUDIO
    TITLE "2Q_k_051-060_38"
    INDEX 01 01:05:16
  TRACK 39 AUDIO
    TITLE "2Q_k_051-060_39"
    INDEX 01 01:07:52
  TRACK 40 AUDIO
    TITLE "2Q_k_051-060_40"
    INDEX 01 01:08:22
  TRACK 41 AUDIO
    TITLE "2Q_k_051-060_41"
    INDEX 01 01:11:08
  TRACK 42 AUDIO
    TITLE "2Q_k_051-060_42"
    INDEX 01 01:15:20
  TRACK 43 AUDIO
    TITLE "2Q_k_051-060_43"
    INDEX 01 01:15:65
  TRACK 44 AUDIO
    TITLE "2Q_k_051-060_44"
    INDEX 01 01:17:21
  TRACK 45 AUDIO
    TITLE "2Q_k_051-060_45"
    INDEX 01 01:17:68
  TRACK 46 AUDIO
    TITLE "2Q_k_051-060_46"
    INDEX 01 01:19:39
  TRACK 47 AUDIO
    TITLE "2Q_k_051-060_47"
    INDEX 01 01:20:09
  TRACK 48 AUDIO
    TITLE "2Q_k_051-060_48"
    INDEX 01 01:23:31
  TRACK 49 AUDIO
    TITLE "2Q_k_051-060_49"
    INDEX 01 01:27:70
  TRACK 50 AUDIO
    TITLE "2Q_k_051-060_50"
    INDEX 01 01:28:44
  TRACK 51 AUDIO
    TITLE "2Q_k_051-060_51"
    INDEX 01 01:30:27
  TRACK 52 AUDIO
    TITLE "2Q_k_051-060_52"
    INDEX 01 01:31:01
  TRACK 53 AUDIO
    TITLE "2Q_k_051-060_53"
    INDEX 01 01:32:30
  TRACK 54 AUDIO
    TITLE "2Q_k_051-060_54"
    INDEX 01 01:33:00
  TRACK 55 AUDIO
    TITLE "2Q_k_051-060_55"
    INDEX 01 01:35:60
  TRACK 56 AUDIO
    TITLE "2Q_k_051-060_56"
    INDEX 01 01:40:53
  TRACK 57 AUDIO
    TITLE "2Q_k_051-060_57"
    INDEX 01 01:41:23
  TRACK 58 AUDIO
    TITLE "2Q_k_051-060_58"
    INDEX 01 01:42:72
  TRACK 59 AUDIO
    TITLE "2Q_k_051-060_59"
    INDEX 01 01:43:42
  TRACK 60 AUDIO
    TITLE "2Q_k_051-060_60"
    INDEX 01 01:45:03
  TRACK 61 AUDIO
    TITLE "2Q_k_051-060_61"
    INDEX 01 01:45:48
  TRACK 62 AUDIO
    TITLE "2Q_k_051-060_62"
    INDEX 01 01:47:59
  TRACK 63 AUDIO
    TITLE "2Q_k_051-060_63"
    INDEX 01 01:49:31
  TRACK 64 AUDIO
    TITLE "2Q_k_051-060_64"
    INDEX 01 01:50:01
  TRACK 65 AUDIO
    TITLE "2Q_k_051-060_65"
    INDEX 01 01:51:31
  TRACK 66 AUDIO
    TITLE "2Q_k_051-060_66"
    INDEX 01 01:52:07
  TRACK 67 AUDIO
    TITLE "2Q_k_051-060_67"
    INDEX 01 01:53:44
  TRACK 68 AUDIO
    TITLE "2Q_k_051-060_68"
    INDEX 01 01:54:16
  TRACK 69 AUDIO
    TITLE "2Q_k_051-060_69"
    INDEX 01 01:56:38
  TRACK 70 AUDIO
    TITLE "2Q_k_051-060_70"
    INDEX 01 01:57:69
